<svg width="41" height="53" viewBox="0 0 41 53" fill="none" xmlns="http://www.w3.org/2000/svg">
<path d="M20.106 0.0677685C19.8494 0.180368 19.5867 0.499237 19.543 0.749568C19.5244 0.862167 19.5116 1.9379 19.5244 3.15137C19.543 5.25911 19.5495 5.3593 19.6745 5.52184C19.9183 5.85344 20.1187 5.95331 20.5126 5.95331C20.9066 5.95331 21.1066 5.85311 21.3508 5.52184C21.4758 5.3531 21.482 5.27804 21.482 2.98263C21.482 0.687231 21.4758 0.612164 21.3508 0.443428C21.2819 0.349758 21.1507 0.212027 21.0629 0.149362C20.8563 -0.00729802 20.356 -0.0510324 20.106 0.0677685Z" fill="#304C5F"/>
<path d="M9.47323 4.44614C9.05416 4.62761 8.81656 5.10281 8.91023 5.59075C8.94156 5.79702 9.17917 6.05975 10.6178 7.49841C12.4191 9.29968 12.438 9.31209 12.9883 9.20601C13.2948 9.14988 13.6701 8.77454 13.7262 8.46808C13.8326 7.92401 13.8137 7.89268 12.0813 6.14754C11.1994 5.25947 10.3864 4.49641 10.2738 4.44614C10.0235 4.33975 9.71703 4.33975 9.47323 4.44614Z" fill="#304C5F"/>
<path d="M30.7385 4.44611C30.6383 4.49604 29.8253 5.25911 28.9434 6.14751C27.211 7.89264 27.1921 7.92365 27.2985 8.46804C27.3549 8.77451 27.7299 9.14984 28.0364 9.20598C28.5867 9.31238 28.6056 9.29345 30.3755 7.52971C31.5263 6.38511 32.0391 5.82864 32.0893 5.68471C32.2271 5.25944 32.0769 4.80904 31.6954 4.5277C31.4826 4.37104 30.9885 4.32731 30.7385 4.44611Z" fill="#304C5F"/>
<path d="M19.4179 7.05421C16.4783 7.44815 13.7889 9.39335 12.4443 12.0954C11.8685 13.2586 11.5872 14.3344 11.5245 15.648C11.4557 17.0492 11.706 18.2375 12.4253 19.9134C12.4505 19.9761 11.6561 19.9947 8.79767 20.0074C5.20753 20.026 5.13246 20.026 4.96373 20.1576C4.63213 20.4014 4.53226 20.6018 4.53226 20.9957C4.53226 21.3896 4.63245 21.59 4.96373 21.8338L5.13246 21.965H20.5123H35.8921L36.0608 21.8338C36.3924 21.59 36.4923 21.3896 36.4923 20.9957C36.4923 20.6018 36.3921 20.4014 36.0608 20.1576C35.8921 20.026 35.817 20.026 32.2331 20.0074C30.2252 20.0012 28.5806 19.9823 28.5806 19.9761C28.5806 19.9699 28.6808 19.7258 28.7996 19.4382C30.1319 16.2861 29.5565 12.8209 27.2611 10.1254C26.0163 8.66194 24.0401 7.51114 22.1324 7.14201C21.5005 7.01668 20.0247 6.96674 19.4179 7.05421ZM21.4943 9.05555C22.7702 9.22429 24.0838 9.77488 25.0156 10.5317C27.6864 12.7083 28.3055 16.7675 26.4168 19.7571L26.2666 19.9947H20.5126H14.7586L14.5899 19.7258C13.9769 18.7564 13.5892 17.5306 13.5265 16.367C13.4639 15.0599 13.6829 13.9528 14.2583 12.7707C14.9401 11.3634 15.8908 10.4191 17.2916 9.73735C17.7045 9.53728 18.2234 9.32448 18.4486 9.26835C19.4179 9.00561 20.5498 8.92435 21.4943 9.05555Z" fill="#304C5F"/>
<path d="M5.09476 15.0787C4.67569 15.2599 4.43809 15.7416 4.52556 16.2106C4.58202 16.5047 4.89469 16.8487 5.17602 16.9299C5.32616 16.9737 6.17669 16.9926 7.64016 16.9799C9.77923 16.9613 9.8791 16.9551 10.042 16.8297C10.3736 16.5859 10.4738 16.3859 10.4738 15.9919C10.4738 15.598 10.3736 15.3976 10.0423 15.1538C9.87975 15.0288 9.78576 15.0226 7.57815 15.0099C5.76415 14.9975 5.24489 15.0099 5.09476 15.0787Z" fill="#304C5F"/>
<path d="M31.1135 15.0788C30.6944 15.2602 30.4568 15.7416 30.5443 16.211C30.6004 16.505 30.9134 16.849 31.1947 16.9303C31.3449 16.974 32.1954 16.993 33.6589 16.9802C35.7979 16.9616 35.8981 16.9554 36.0607 16.8301C36.3923 16.586 36.4925 16.3859 36.4925 15.992C36.4925 15.598 36.3923 15.3976 36.061 15.1538C35.8985 15.0288 35.8045 15.0226 33.5969 15.0099C31.7829 14.9975 31.2636 15.0099 31.1135 15.0788Z" fill="#304C5F"/>
<path d="M20.106 24.0851C19.8746 24.1915 19.6683 24.4102 19.5805 24.6416C19.5368 24.7542 19.5116 25.5173 19.5116 26.7056V28.5885L18.7486 27.8316C17.9228 27.0186 17.773 26.9373 17.2789 27.031C16.9724 27.0875 16.5971 27.4625 16.541 27.7689C16.4346 28.3192 16.4473 28.3381 18.2486 30.1456C19.168 31.0712 19.9937 31.8656 20.0874 31.9156C20.3064 32.0281 20.7189 32.0281 20.9379 31.9156C21.0316 31.8656 21.8573 31.0712 22.7767 30.1456C24.578 28.3381 24.5904 28.3192 24.4843 27.7689C24.4278 27.4625 24.0528 27.0871 23.7464 27.031C23.2522 26.9373 23.1021 27.0186 22.2829 27.8254L21.5198 28.5823L21.5012 26.6057C21.4823 24.7232 21.4761 24.623 21.3511 24.4605C21.2822 24.3665 21.151 24.2291 21.0632 24.1664C20.8501 24.0101 20.356 23.9663 20.106 24.0851Z" fill="#304C5F"/>
<path d="M6.05628 45.296H2.56428L1.96428 47H0.536281L3.52428 38.648H5.10828L8.09628 47H6.65628L6.05628 45.296ZM5.67228 44.18L4.31628 40.304L2.94828 44.18H5.67228ZM11.6915 43.7L14.7395 47H12.8915L10.4435 44.156V47H9.07547V38.12H10.4435V43.28L12.8435 40.388H14.7395L11.6915 43.7ZM20.332 45.152C20.332 45.672 20.14 46.112 19.756 46.472C19.372 46.824 18.852 47.028 18.196 47.084V47.576C18.66 47.576 19.036 47.684 19.324 47.9C19.612 48.124 19.756 48.436 19.756 48.836C19.756 49.236 19.612 49.552 19.324 49.784C19.036 50.024 18.672 50.144 18.232 50.144H16.648V49.28H17.956C18.18 49.28 18.348 49.248 18.46 49.184C18.572 49.12 18.628 49.004 18.628 48.836C18.628 48.668 18.572 48.552 18.46 48.488C18.348 48.424 18.18 48.392 17.956 48.392H17.296V47.072C16.648 46.992 16.116 46.756 15.7 46.364C15.284 45.972 15.064 45.508 15.04 44.972H16.456C16.48 45.252 16.612 45.488 16.852 45.68C17.1 45.864 17.408 45.956 17.776 45.956C18.16 45.956 18.456 45.884 18.664 45.74C18.88 45.588 18.988 45.396 18.988 45.164C18.988 44.916 18.868 44.732 18.628 44.612C18.396 44.492 18.024 44.36 17.512 44.216C17.016 44.08 16.612 43.948 16.3 43.82C15.988 43.692 15.716 43.496 15.484 43.232C15.26 42.968 15.148 42.62 15.148 42.188C15.148 41.836 15.252 41.516 15.46 41.228C15.668 40.932 15.964 40.7 16.348 40.532C16.74 40.364 17.188 40.28 17.692 40.28C18.444 40.28 19.048 40.472 19.504 40.856C19.968 41.232 20.216 41.748 20.248 42.404H18.88C18.856 42.108 18.736 41.872 18.52 41.696C18.304 41.52 18.012 41.432 17.644 41.432C17.284 41.432 17.008 41.5 16.816 41.636C16.624 41.772 16.528 41.952 16.528 42.176C16.528 42.352 16.592 42.5 16.72 42.62C16.848 42.74 17.004 42.836 17.188 42.908C17.372 42.972 17.644 43.056 18.004 43.16C18.484 43.288 18.876 43.42 19.18 43.556C19.492 43.684 19.76 43.876 19.984 44.132C20.208 44.388 20.324 44.728 20.332 45.152ZM21.0342 43.664C21.0342 43 21.1702 42.412 21.4422 41.9C21.7222 41.388 22.0982 40.992 22.5702 40.712C23.0502 40.424 23.5782 40.28 24.1542 40.28C24.6742 40.28 25.1262 40.384 25.5102 40.592C25.9022 40.792 26.2142 41.044 26.4462 41.348V40.388H27.8262V47H26.4462V46.016C26.2142 46.328 25.8982 46.588 25.4982 46.796C25.0982 47.004 24.6422 47.108 24.1302 47.108C23.5622 47.108 23.0422 46.964 22.5702 46.676C22.0982 46.38 21.7222 45.972 21.4422 45.452C21.1702 44.924 21.0342 44.328 21.0342 43.664ZM26.4462 43.688C26.4462 43.232 26.3502 42.836 26.1582 42.5C25.9742 42.164 25.7302 41.908 25.4262 41.732C25.1222 41.556 24.7942 41.468 24.4422 41.468C24.0902 41.468 23.7622 41.556 23.4582 41.732C23.1542 41.9 22.9062 42.152 22.7142 42.488C22.5302 42.816 22.4382 43.208 22.4382 43.664C22.4382 44.12 22.5302 44.52 22.7142 44.864C22.9062 45.208 23.1542 45.472 23.4582 45.656C23.7702 45.832 24.0982 45.92 24.4422 45.92C24.7942 45.92 25.1222 45.832 25.4262 45.656C25.7302 45.48 25.9742 45.224 26.1582 44.888C26.3502 44.544 26.4462 44.144 26.4462 43.688ZM37.307 40.28C37.827 40.28 38.291 40.388 38.699 40.604C39.115 40.82 39.439 41.14 39.671 41.564C39.911 41.988 40.031 42.5 40.031 43.1V47H38.675V43.304C38.675 42.712 38.527 42.26 38.231 41.948C37.935 41.628 37.531 41.468 37.019 41.468C36.507 41.468 36.099 41.628 35.795 41.948C35.499 42.26 35.351 42.712 35.351 43.304V47H33.995V43.304C33.995 42.712 33.847 42.26 33.551 41.948C33.255 41.628 32.851 41.468 32.339 41.468C31.827 41.468 31.419 41.628 31.115 41.948C30.819 42.26 30.671 42.712 30.671 43.304V47H29.303V40.388H30.671V41.144C30.895 40.872 31.179 40.66 31.523 40.508C31.867 40.356 32.235 40.28 32.627 40.28C33.155 40.28 33.627 40.392 34.043 40.616C34.459 40.84 34.779 41.164 35.003 41.588C35.203 41.188 35.515 40.872 35.939 40.64C36.363 40.4 36.819 40.28 37.307 40.28Z" fill="#383838"/>
</svg>
