<svg width="37" height="53" viewBox="0 0 37 53" fill="none" xmlns="http://www.w3.org/2000/svg">
<path d="M18.106 0.0677685C17.8494 0.180368 17.5867 0.499237 17.543 0.749568C17.5244 0.862167 17.5116 1.9379 17.5244 3.15137C17.543 5.25911 17.5495 5.3593 17.6745 5.52184C17.9183 5.85344 18.1187 5.95331 18.5126 5.95331C18.9066 5.95331 19.1066 5.85311 19.3508 5.52184C19.4758 5.3531 19.482 5.27804 19.482 2.98263C19.482 0.687231 19.4758 0.612164 19.3508 0.443428C19.2819 0.349758 19.1507 0.212027 19.0629 0.149362C18.8563 -0.00729802 18.356 -0.0510324 18.106 0.0677685Z" fill="#304C5F"/>
<path d="M7.47323 4.44614C7.05416 4.62761 6.81656 5.10281 6.91023 5.59075C6.94156 5.79702 7.17917 6.05975 8.61783 7.49841C10.4191 9.29968 10.438 9.31209 10.9883 9.20601C11.2948 9.14988 11.6701 8.77454 11.7262 8.46808C11.8326 7.92401 11.8137 7.89268 10.0813 6.14754C9.19943 5.25947 8.38643 4.49641 8.27383 4.44614C8.0235 4.33975 7.71703 4.33975 7.47323 4.44614Z" fill="#304C5F"/>
<path d="M28.7385 4.44611C28.6383 4.49604 27.8253 5.25911 26.9434 6.14751C25.211 7.89264 25.1921 7.92365 25.2985 8.46804C25.3549 8.77451 25.7299 9.14984 26.0364 9.20598C26.5867 9.31238 26.6056 9.29345 28.3755 7.52971C29.5263 6.38511 30.0391 5.82864 30.0893 5.68471C30.2271 5.25944 30.0769 4.80904 29.6954 4.5277C29.4826 4.37104 28.9885 4.32731 28.7385 4.44611Z" fill="#304C5F"/>
<path d="M17.4179 7.05421C14.4783 7.44815 11.7889 9.39335 10.4443 12.0954C9.86854 13.2586 9.5872 14.3344 9.52454 15.648C9.45567 17.0492 9.706 18.2375 10.4253 19.9134C10.4505 19.9761 9.65607 19.9947 6.79767 20.0074C3.20753 20.026 3.13246 20.026 2.96373 20.1576C2.63213 20.4014 2.53226 20.6018 2.53226 20.9957C2.53226 21.3896 2.63245 21.59 2.96373 21.8338L3.13246 21.965H18.5123H33.8921L34.0608 21.8338C34.3924 21.59 34.4923 21.3896 34.4923 20.9957C34.4923 20.6018 34.3921 20.4014 34.0608 20.1576C33.8921 20.026 33.817 20.026 30.2331 20.0074C28.2252 20.0012 26.5806 19.9823 26.5806 19.9761C26.5806 19.9699 26.6808 19.7258 26.7996 19.4382C28.1319 16.2861 27.5565 12.8209 25.2611 10.1254C24.0163 8.66194 22.0401 7.51114 20.1324 7.14201C19.5005 7.01668 18.0247 6.96674 17.4179 7.05421ZM19.4943 9.05555C20.7702 9.22429 22.0838 9.77488 23.0156 10.5317C25.6864 12.7083 26.3055 16.7675 24.4168 19.7571L24.2666 19.9947H18.5126H12.7586L12.5899 19.7258C11.9769 18.7564 11.5892 17.5306 11.5265 16.367C11.4639 15.0599 11.6829 13.9528 12.2583 12.7707C12.9401 11.3634 13.8908 10.4191 15.2916 9.73735C15.7045 9.53728 16.2234 9.32448 16.4486 9.26835C17.4179 9.00561 18.5498 8.92435 19.4943 9.05555Z" fill="#304C5F"/>
<path d="M3.09476 15.0787C2.67569 15.2599 2.43809 15.7416 2.52556 16.2106C2.58202 16.5047 2.89469 16.8487 3.17602 16.9299C3.32616 16.9737 4.17669 16.9926 5.64016 16.9799C7.77923 16.9613 7.8791 16.9551 8.04196 16.8297C8.37356 16.5859 8.47376 16.3859 8.47376 15.9919C8.47376 15.598 8.37356 15.3976 8.04229 15.1538C7.87975 15.0288 7.78576 15.0226 5.57815 15.0099C3.76415 14.9975 3.24489 15.0099 3.09476 15.0787Z" fill="#304C5F"/>
<path d="M29.1135 15.0788C28.6944 15.2602 28.4568 15.7416 28.5443 16.211C28.6004 16.505 28.9134 16.849 29.1947 16.9303C29.3449 16.974 30.1954 16.993 31.6589 16.9802C33.7979 16.9616 33.8981 16.9554 34.0607 16.8301C34.3923 16.586 34.4925 16.3859 34.4925 15.992C34.4925 15.598 34.3923 15.3976 34.061 15.1538C33.8985 15.0288 33.8045 15.0226 31.5969 15.0099C29.7829 14.9975 29.2636 15.0099 29.1135 15.0788Z" fill="#304C5F"/>
<path d="M18.106 31.9322C17.8746 31.8258 17.6683 31.6071 17.5805 31.3757C17.5368 31.2631 17.5116 30.5001 17.5116 29.3117V27.4289L16.7486 28.1857C15.9228 28.9987 15.773 29.08 15.2789 28.9863C14.9724 28.9299 14.5971 28.5549 14.541 28.2484C14.4346 27.6981 14.4473 27.6792 16.2486 25.8717C17.168 24.9461 17.9937 24.1517 18.0874 24.1018C18.3064 23.9892 18.7189 23.9892 18.9379 24.1018C19.0316 24.1517 19.8573 24.9461 20.7767 25.8717C22.578 27.6792 22.5904 27.6981 22.4843 28.2484C22.4278 28.5549 22.0528 28.9302 21.7464 28.9863C21.2522 29.08 21.1021 28.9987 20.2829 28.1919L19.5198 27.4351L19.5012 29.4116C19.4823 31.2941 19.4761 31.3943 19.3511 31.5569C19.2822 31.6509 19.151 31.7883 19.0632 31.8509C18.8501 32.0073 18.356 32.051 18.106 31.9322Z" fill="#304C5F"/>
<path d="M3.0712 47.084C2.5112 47.084 2.0072 46.988 1.5592 46.796C1.1112 46.596 0.759203 46.316 0.503203 45.956C0.247203 45.596 0.119203 45.176 0.119203 44.696H1.5832C1.6152 45.056 1.7552 45.352 2.0032 45.584C2.2592 45.816 2.6152 45.932 3.0712 45.932C3.5432 45.932 3.9112 45.82 4.1752 45.596C4.4392 45.364 4.5712 45.068 4.5712 44.708C4.5712 44.428 4.4872 44.2 4.3192 44.024C4.1592 43.848 3.9552 43.712 3.7072 43.616C3.4672 43.52 3.1312 43.416 2.6992 43.304C2.1552 43.16 1.7112 43.016 1.3672 42.872C1.0312 42.72 0.743203 42.488 0.503203 42.176C0.263203 41.864 0.143203 41.448 0.143203 40.928C0.143203 40.448 0.263203 40.028 0.503203 39.668C0.743203 39.308 1.0792 39.032 1.5112 38.84C1.9432 38.648 2.4432 38.552 3.0112 38.552C3.8192 38.552 4.4792 38.756 4.9912 39.164C5.5112 39.564 5.7992 40.116 5.8552 40.82H4.3432C4.3192 40.516 4.1752 40.256 3.9112 40.04C3.6472 39.824 3.2992 39.716 2.8672 39.716C2.4752 39.716 2.1552 39.816 1.9072 40.016C1.6592 40.216 1.5352 40.504 1.5352 40.88C1.5352 41.136 1.6112 41.348 1.7632 41.516C1.9232 41.676 2.1232 41.804 2.3632 41.9C2.6032 41.996 2.9312 42.1 3.3472 42.212C3.8992 42.364 4.3472 42.516 4.6912 42.668C5.0432 42.82 5.3392 43.056 5.5792 43.376C5.8272 43.688 5.9512 44.108 5.9512 44.636C5.9512 45.06 5.8352 45.46 5.6032 45.836C5.3792 46.212 5.0472 46.516 4.6072 46.748C4.1752 46.972 3.6632 47.084 3.0712 47.084ZM6.78939 43.664C6.78939 43 6.92539 42.412 7.19739 41.9C7.47739 41.388 7.85339 40.992 8.32539 40.712C8.80539 40.424 9.33339 40.28 9.90939 40.28C10.4294 40.28 10.8814 40.384 11.2654 40.592C11.6574 40.792 11.9694 41.044 12.2014 41.348V40.388H13.5814V47H12.2014V46.016C11.9694 46.328 11.6534 46.588 11.2534 46.796C10.8534 47.004 10.3974 47.108 9.88539 47.108C9.31739 47.108 8.79739 46.964 8.32539 46.676C7.85339 46.38 7.47739 45.972 7.19739 45.452C6.92539 44.924 6.78939 44.328 6.78939 43.664ZM12.2014 43.688C12.2014 43.232 12.1054 42.836 11.9134 42.5C11.7294 42.164 11.4854 41.908 11.1814 41.732C10.8774 41.556 10.5494 41.468 10.1974 41.468C9.84539 41.468 9.51739 41.556 9.21339 41.732C8.90939 41.9 8.66139 42.152 8.46939 42.488C8.28539 42.816 8.19339 43.208 8.19339 43.664C8.19339 44.12 8.28539 44.52 8.46939 44.864C8.66139 45.208 8.90939 45.472 9.21339 45.656C9.52539 45.832 9.85339 45.92 10.1974 45.92C10.5494 45.92 10.8774 45.832 11.1814 45.656C11.4854 45.48 11.7294 45.224 11.9134 44.888C12.1054 44.544 12.2014 44.144 12.2014 43.688ZM16.4262 41.372C16.6582 41.052 16.9742 40.792 17.3742 40.592C17.7822 40.384 18.2342 40.28 18.7302 40.28C19.3142 40.28 19.8422 40.42 20.3142 40.7C20.7862 40.98 21.1582 41.38 21.4302 41.9C21.7022 42.412 21.8382 43 21.8382 43.664C21.8382 44.328 21.7022 44.924 21.4302 45.452C21.1582 45.972 20.7822 46.38 20.3022 46.676C19.8302 46.964 19.3062 47.108 18.7302 47.108C18.2182 47.108 17.7622 47.008 17.3622 46.808C16.9702 46.608 16.6582 46.352 16.4262 46.04V47H15.0582V38.12H16.4262V41.372ZM20.4462 43.664C20.4462 43.208 20.3502 42.816 20.1582 42.488C19.9742 42.152 19.7262 41.9 19.4142 41.732C19.1102 41.556 18.7822 41.468 18.4302 41.468C18.0862 41.468 17.7582 41.556 17.4462 41.732C17.1422 41.908 16.8942 42.164 16.7022 42.5C16.5182 42.836 16.4262 43.232 16.4262 43.688C16.4262 44.144 16.5182 44.544 16.7022 44.888C16.8942 45.224 17.1422 45.48 17.4462 45.656C17.7582 45.832 18.0862 45.92 18.4302 45.92C18.7822 45.92 19.1102 45.832 19.4142 45.656C19.7262 45.472 19.9742 45.208 20.1582 44.864C20.3502 44.52 20.4462 44.12 20.4462 43.664ZM22.415 43.664C22.415 43 22.551 42.412 22.823 41.9C23.103 41.388 23.479 40.992 23.951 40.712C24.431 40.424 24.959 40.28 25.535 40.28C26.055 40.28 26.507 40.384 26.891 40.592C27.283 40.792 27.595 41.044 27.827 41.348V40.388H29.207V47H27.827V46.016C27.595 46.328 27.279 46.588 26.879 46.796C26.479 47.004 26.023 47.108 25.511 47.108C24.943 47.108 24.423 46.964 23.951 46.676C23.479 46.38 23.103 45.972 22.823 45.452C22.551 44.924 22.415 44.328 22.415 43.664ZM27.827 43.688C27.827 43.232 27.731 42.836 27.539 42.5C27.355 42.164 27.111 41.908 26.807 41.732C26.503 41.556 26.175 41.468 25.823 41.468C25.471 41.468 25.143 41.556 24.839 41.732C24.535 41.9 24.287 42.152 24.095 42.488C23.911 42.816 23.819 43.208 23.819 43.664C23.819 44.12 23.911 44.52 24.095 44.864C24.287 45.208 24.535 45.472 24.839 45.656C25.151 45.832 25.479 45.92 25.823 45.92C26.175 45.92 26.503 45.832 26.807 45.656C27.111 45.48 27.355 45.224 27.539 44.888C27.731 44.544 27.827 44.144 27.827 43.688ZM34.1038 40.28C34.6078 40.28 35.0558 40.388 35.4478 40.604C35.8478 40.82 36.1598 41.14 36.3838 41.564C36.6158 41.988 36.7318 42.5 36.7318 43.1V47H35.3758V43.304C35.3758 42.712 35.2278 42.26 34.9318 41.948C34.6358 41.628 34.2318 41.468 33.7198 41.468C33.2078 41.468 32.7998 41.628 32.4958 41.948C32.1998 42.26 32.0518 42.712 32.0518 43.304V47H30.6838V38.12H32.0518V41.156C32.2838 40.876 32.5758 40.66 32.9278 40.508C33.2878 40.356 33.6798 40.28 34.1038 40.28Z" fill="#383838"/>
</svg>
