<svg width="37" height="53" viewBox="0 0 37 53" fill="none" xmlns="http://www.w3.org/2000/svg">
<mask id="path-2-inside-1_627_1548" fill="white">
<path fill-rule="evenodd" clip-rule="evenodd" d="M13.2666 5.08649C8.80289 9.55022 8.80289 16.7874 13.2666 21.2511C17.7304 25.7148 24.9675 25.7148 29.4312 21.2511C30.146 20.5363 30.7464 19.7503 31.2323 18.916C31.6564 18.1878 30.9125 17.3965 30.0803 17.5288C26.5873 18.084 22.8864 17.0155 20.1942 14.3234C17.5021 11.6313 16.4336 7.9304 16.9888 4.43754C17.121 3.60525 16.3297 2.86141 15.6015 3.28554C14.7673 3.7714 13.9814 4.37172 13.2666 5.08649Z"/>
</mask>
<path d="M16.9888 4.43754L18.4702 4.67299L16.9888 4.43754ZM15.6015 3.28554L14.8466 1.98935L15.6015 3.28554ZM31.2323 18.916L32.5285 19.6709L31.2323 18.916ZM14.3273 20.1904C10.4493 16.3125 10.4493 10.0251 14.3273 6.14715L12.206 4.02583C7.15645 9.07535 7.15645 17.2622 12.206 22.3118L14.3273 20.1904ZM28.3706 20.1904C24.4926 24.0684 18.2052 24.0684 14.3273 20.1904L12.206 22.3118C17.2555 27.3613 25.4424 27.3613 30.4919 22.3118L28.3706 20.1904ZM29.9361 18.1611C29.5146 18.8848 28.9932 19.5678 28.3706 20.1904L30.4919 22.3118C31.2989 21.5048 31.9782 20.6159 32.5285 19.6709L29.9361 18.1611ZM29.8448 16.0474C26.8059 16.5304 23.5929 15.6008 21.2549 13.2627L19.1335 15.384C22.1798 18.4303 26.3687 19.6376 30.3157 19.0102L29.8448 16.0474ZM21.2549 13.2627C18.9169 10.9247 17.9872 7.71177 18.4702 4.67299L15.5074 4.2021C14.8801 8.14903 16.0874 12.3379 19.1335 15.384L21.2549 13.2627ZM14.3273 6.14715C14.9499 5.52453 15.6329 5.00315 16.3564 4.58173L14.8466 1.98935C13.9017 2.53966 13.0129 3.21891 12.206 4.02583L14.3273 6.14715ZM18.4702 4.67299C18.6201 3.72954 18.2523 2.82428 17.6025 2.25885C16.9163 1.66167 15.843 1.40902 14.8466 1.98935L16.3564 4.58173C16.2582 4.63894 16.1104 4.67819 15.9473 4.65661C15.7968 4.63669 15.6924 4.57346 15.6331 4.52192C15.528 4.43046 15.4897 4.31326 15.5074 4.2021L18.4702 4.67299ZM32.5285 19.6709C33.1088 18.6745 32.8561 17.6012 32.2589 16.915C31.6935 16.2652 30.7882 15.8974 29.8448 16.0474L30.3157 19.0102C30.2046 19.0279 30.0874 18.9895 29.9959 18.8844C29.9444 18.8252 29.8811 18.7207 29.8612 18.5703C29.8396 18.4072 29.8789 18.2594 29.9361 18.1611L32.5285 19.6709Z" fill="#D23B38" mask="url(#path-2-inside-1_627_1548)"/>
<path d="M23.2329 2.97777C23.3855 2.56299 23.9719 2.56299 24.1292 2.97777L24.6584 4.40805C24.7061 4.53677 24.811 4.64166 24.9397 4.68934L26.37 5.21853C26.7848 5.3711 26.7848 5.95751 26.37 6.11484L24.9397 6.64404C24.811 6.69172 24.7061 6.7966 24.6584 6.92533L24.1292 8.3556C23.9767 8.77038 23.3903 8.77038 23.2329 8.3556L22.7037 6.92533C22.6561 6.7966 22.5512 6.69172 22.4225 6.64404L20.9922 6.11484C20.5774 5.96228 20.5774 5.37586 20.9922 5.21853L22.4225 4.68934C22.5512 4.64166 22.6561 4.53677 22.7037 4.40805L23.2329 2.97777Z" fill="#D23B38"/>
<path d="M30.1766 10.6683C30.2783 10.3917 30.6692 10.3917 30.7741 10.6683L31.1269 11.6218C31.1587 11.7076 31.2286 11.7775 31.3144 11.8093L32.268 12.1621C32.5445 12.2638 32.5445 12.6548 32.268 12.7596L31.3144 13.1124C31.2286 13.1442 31.1587 13.2142 31.1269 13.3L30.7741 14.2535C30.6724 14.53 30.2815 14.53 30.1766 14.2535L29.8238 13.3C29.792 13.2142 29.7221 13.1442 29.6362 13.1124L28.6827 12.7596C28.4062 12.6579 28.4062 12.267 28.6827 12.1621L29.6362 11.8093C29.7221 11.7775 29.792 11.7076 29.8238 11.6218L30.1766 10.6683Z" fill="#D23B38"/>
<path d="M30.8647 3.93563C30.941 3.72824 31.2342 3.72824 31.3129 3.93563L31.5775 4.65077C31.6013 4.71513 31.6538 4.76758 31.7181 4.79141L32.4333 5.05601C32.6407 5.13229 32.6407 5.4255 32.4333 5.50417L31.7181 5.76877C31.6538 5.79261 31.6013 5.84505 31.5775 5.90941L31.3129 6.62455C31.2366 6.83194 30.9434 6.83194 30.8647 6.62455L30.6001 5.90941C30.5763 5.84505 30.5238 5.79261 30.4595 5.76877L29.7443 5.50417C29.537 5.42789 29.537 5.13468 29.7443 5.05601L30.4595 4.79141C30.5238 4.76758 30.5763 4.71513 30.6001 4.65077L30.8647 3.93563Z" fill="#D23B38"/>
<path d="M10.2715 41.06C10.0555 40.644 9.75547 40.332 9.37147 40.124C8.98747 39.908 8.54347 39.8 8.03947 39.8C7.48747 39.8 6.99547 39.924 6.56347 40.172C6.13147 40.42 5.79147 40.772 5.54347 41.228C5.30347 41.684 5.18347 42.212 5.18347 42.812C5.18347 43.412 5.30347 43.944 5.54347 44.408C5.79147 44.864 6.13147 45.216 6.56347 45.464C6.99547 45.712 7.48747 45.836 8.03947 45.836C8.78347 45.836 9.38747 45.628 9.85147 45.212C10.3155 44.796 10.5995 44.232 10.7035 43.52H7.57147V42.428H12.1675V43.496C12.0795 44.144 11.8475 44.74 11.4715 45.284C11.1035 45.828 10.6195 46.264 10.0195 46.592C9.42747 46.912 8.76747 47.072 8.03947 47.072C7.25547 47.072 6.53947 46.892 5.89147 46.532C5.24347 46.164 4.72747 45.656 4.34347 45.008C3.96747 44.36 3.77947 43.628 3.77947 42.812C3.77947 41.996 3.96747 41.264 4.34347 40.616C4.72747 39.968 5.24347 39.464 5.89147 39.104C6.54747 38.736 7.26347 38.552 8.03947 38.552C8.92747 38.552 9.71547 38.772 10.4035 39.212C11.0995 39.644 11.6035 40.26 11.9155 41.06H10.2715ZM19.2567 43.532C19.2567 43.78 19.2407 44.004 19.2087 44.204H14.1567C14.1967 44.732 14.3927 45.156 14.7447 45.476C15.0967 45.796 15.5287 45.956 16.0407 45.956C16.7767 45.956 17.2967 45.648 17.6007 45.032H19.0767C18.8767 45.64 18.5127 46.14 17.9847 46.532C17.4647 46.916 16.8167 47.108 16.0407 47.108C15.4087 47.108 14.8407 46.968 14.3367 46.688C13.8407 46.4 13.4487 46 13.1607 45.488C12.8807 44.968 12.7407 44.368 12.7407 43.688C12.7407 43.008 12.8767 42.412 13.1487 41.9C13.4287 41.38 13.8167 40.98 14.3127 40.7C14.8167 40.42 15.3927 40.28 16.0407 40.28C16.6647 40.28 17.2207 40.416 17.7087 40.688C18.1967 40.96 18.5767 41.344 18.8487 41.84C19.1207 42.328 19.2567 42.892 19.2567 43.532ZM17.8287 43.1C17.8207 42.596 17.6407 42.192 17.2887 41.888C16.9367 41.584 16.5007 41.432 15.9807 41.432C15.5087 41.432 15.1047 41.584 14.7687 41.888C14.4327 42.184 14.2327 42.588 14.1687 43.1H17.8287ZM19.827 43.688C19.827 43.008 19.963 42.412 20.235 41.9C20.515 41.38 20.899 40.98 21.387 40.7C21.875 40.42 22.435 40.28 23.067 40.28C23.867 40.28 24.527 40.472 25.047 40.856C25.575 41.232 25.931 41.772 26.115 42.476H24.639C24.519 42.148 24.327 41.892 24.063 41.708C23.799 41.524 23.467 41.432 23.067 41.432C22.507 41.432 22.059 41.632 21.723 42.032C21.395 42.424 21.231 42.976 21.231 43.688C21.231 44.4 21.395 44.956 21.723 45.356C22.059 45.756 22.507 45.956 23.067 45.956C23.859 45.956 24.383 45.608 24.639 44.912H26.115C25.923 45.584 25.563 46.12 25.035 46.52C24.507 46.912 23.851 47.108 23.067 47.108C22.435 47.108 21.875 46.968 21.387 46.688C20.899 46.4 20.515 46 20.235 45.488C19.963 44.968 19.827 44.368 19.827 43.688ZM33.2183 43.532C33.2183 43.78 33.2023 44.004 33.1703 44.204H28.1183C28.1583 44.732 28.3543 45.156 28.7063 45.476C29.0583 45.796 29.4903 45.956 30.0023 45.956C30.7383 45.956 31.2583 45.648 31.5623 45.032H33.0383C32.8383 45.64 32.4743 46.14 31.9463 46.532C31.4263 46.916 30.7783 47.108 30.0023 47.108C29.3703 47.108 28.8023 46.968 28.2983 46.688C27.8023 46.4 27.4103 46 27.1223 45.488C26.8423 44.968 26.7023 44.368 26.7023 43.688C26.7023 43.008 26.8383 42.412 27.1103 41.9C27.3903 41.38 27.7783 40.98 28.2743 40.7C28.7783 40.42 29.3543 40.28 30.0023 40.28C30.6263 40.28 31.1823 40.416 31.6703 40.688C32.1583 40.96 32.5383 41.344 32.8103 41.84C33.0823 42.328 33.2183 42.892 33.2183 43.532ZM31.7903 43.1C31.7823 42.596 31.6023 42.192 31.2503 41.888C30.8983 41.584 30.4623 41.432 29.9423 41.432C29.4703 41.432 29.0663 41.584 28.7303 41.888C28.3943 42.184 28.1943 42.588 28.1303 43.1H31.7903Z" fill="#D23B38"/>
</svg>
