<svg width="37" height="53" viewBox="0 0 37 53" fill="none" xmlns="http://www.w3.org/2000/svg">
<path d="M18.5 22C16.9087 22 15.3826 21.3679 14.2574 20.2426C13.1321 19.1174 12.5 17.5913 12.5 16C12.5 14.4087 13.1321 12.8826 14.2574 11.7574C15.3826 10.6321 16.9087 10 18.5 10C20.0913 10 21.6174 10.6321 22.7426 11.7574C23.8679 12.8826 24.5 14.4087 24.5 16C24.5 17.5913 23.8679 19.1174 22.7426 20.2426C21.6174 21.3679 20.0913 22 18.5 22ZM18.5 24C20.6217 24 22.6566 23.1571 24.1569 21.6569C25.6571 20.1566 26.5 18.1217 26.5 16C26.5 13.8783 25.6571 11.8434 24.1569 10.3431C22.6566 8.84285 20.6217 8 18.5 8C16.3783 8 14.3434 8.84285 12.8431 10.3431C11.3429 11.8434 10.5 13.8783 10.5 16C10.5 18.1217 11.3429 20.1566 12.8431 21.6569C14.3434 23.1571 16.3783 24 18.5 24ZM18.5 0C18.7652 0 19.0196 0.105357 19.2071 0.292893C19.3946 0.48043 19.5 0.734784 19.5 1V5C19.5 5.26522 19.3946 5.51957 19.2071 5.70711C19.0196 5.89464 18.7652 6 18.5 6C18.2348 6 17.9804 5.89464 17.7929 5.70711C17.6054 5.51957 17.5 5.26522 17.5 5V1C17.5 0.734784 17.6054 0.48043 17.7929 0.292893C17.9804 0.105357 18.2348 0 18.5 0ZM18.5 26C18.7652 26 19.0196 26.1054 19.2071 26.2929C19.3946 26.4804 19.5 26.7348 19.5 27V31C19.5 31.2652 19.3946 31.5196 19.2071 31.7071C19.0196 31.8946 18.7652 32 18.5 32C18.2348 32 17.9804 31.8946 17.7929 31.7071C17.6054 31.5196 17.5 31.2652 17.5 31V27C17.5 26.7348 17.6054 26.4804 17.7929 26.2929C17.9804 26.1054 18.2348 26 18.5 26ZM34.5 16C34.5 16.2652 34.3946 16.5196 34.2071 16.7071C34.0196 16.8946 33.7652 17 33.5 17H29.5C29.2348 17 28.9804 16.8946 28.7929 16.7071C28.6054 16.5196 28.5 16.2652 28.5 16C28.5 15.7348 28.6054 15.4804 28.7929 15.2929C28.9804 15.1054 29.2348 15 29.5 15H33.5C33.7652 15 34.0196 15.1054 34.2071 15.2929C34.3946 15.4804 34.5 15.7348 34.5 16ZM8.5 16C8.5 16.2652 8.39464 16.5196 8.20711 16.7071C8.01957 16.8946 7.76522 17 7.5 17H3.5C3.23478 17 2.98043 16.8946 2.79289 16.7071C2.60536 16.5196 2.5 16.2652 2.5 16C2.5 15.7348 2.60536 15.4804 2.79289 15.2929C2.98043 15.1054 3.23478 15 3.5 15H7.5C7.76522 15 8.01957 15.1054 8.20711 15.2929C8.39464 15.4804 8.5 15.7348 8.5 16ZM29.814 4.686C30.0015 4.87353 30.1068 5.12784 30.1068 5.393C30.1068 5.65816 30.0015 5.91247 29.814 6.1L26.986 8.93C26.893 9.02285 26.7827 9.09647 26.6612 9.14666C26.5398 9.19686 26.4097 9.22265 26.2783 9.22256C26.0129 9.22237 25.7585 9.11677 25.571 8.929C25.4782 8.83602 25.4045 8.72567 25.3543 8.60424C25.3041 8.48281 25.2784 8.35269 25.2784 8.22129C25.2786 7.95593 25.3842 7.70151 25.572 7.514L28.4 4.686C28.5875 4.49853 28.8418 4.39321 29.107 4.39321C29.3722 4.39321 29.6265 4.49853 29.814 4.686ZM11.428 23.072C11.6155 23.2595 11.7208 23.5138 11.7208 23.779C11.7208 24.0442 11.6155 24.2985 11.428 24.486L8.6 27.314C8.4114 27.4962 8.1588 27.597 7.8966 27.5947C7.6344 27.5924 7.38359 27.4872 7.19818 27.3018C7.01277 27.1164 6.9076 26.8656 6.90533 26.6034C6.90305 26.3412 7.00384 26.0886 7.186 25.9L10.014 23.072C10.2015 22.8845 10.4558 22.7792 10.721 22.7792C10.9862 22.7792 11.2405 22.8845 11.428 23.072ZM29.814 27.314C29.6265 27.5015 29.3722 27.6068 29.107 27.6068C28.8418 27.6068 28.5875 27.5015 28.4 27.314L25.572 24.486C25.3898 24.2974 25.289 24.0448 25.2913 23.7826C25.2936 23.5204 25.3988 23.2696 25.5842 23.0842C25.7696 22.8988 26.0204 22.7936 26.2826 22.7913C26.5448 22.789 26.7974 22.8898 26.986 23.072L29.814 25.9C30.0015 26.0875 30.1068 26.3418 30.1068 26.607C30.1068 26.8722 30.0015 27.1265 29.814 27.314ZM11.428 8.93C11.2405 9.11747 10.9862 9.22279 10.721 9.22279C10.4558 9.22279 10.2015 9.11747 10.014 8.93L7.186 6.1C7.09049 6.00775 7.01431 5.89741 6.9619 5.7754C6.90949 5.6534 6.8819 5.52218 6.88075 5.3894C6.8796 5.25662 6.9049 5.12494 6.95518 5.00205C7.00546 4.87915 7.07971 4.7675 7.17361 4.67361C7.2675 4.57971 7.37915 4.50546 7.50205 4.45518C7.62494 4.4049 7.75662 4.3796 7.8894 4.38075C8.02218 4.3819 8.1534 4.40949 8.2754 4.4619C8.39741 4.51431 8.50775 4.59049 8.6 4.686L11.428 7.514C11.5211 7.60689 11.595 7.71724 11.6454 7.83873C11.6958 7.96022 11.7218 8.09047 11.7218 8.222C11.7218 8.35353 11.6958 8.48378 11.6454 8.60527C11.595 8.72676 11.5211 8.83711 11.428 8.93Z" fill="#304C5F"/>
<path d="M9.62736 47.084C8.85136 47.084 8.13536 46.904 7.47936 46.544C6.83136 46.176 6.31536 45.668 5.93136 45.02C5.55536 44.364 5.36736 43.628 5.36736 42.812C5.36736 41.996 5.55536 41.264 5.93136 40.616C6.31536 39.968 6.83136 39.464 7.47936 39.104C8.13536 38.736 8.85136 38.552 9.62736 38.552C10.4114 38.552 11.1274 38.736 11.7754 39.104C12.4314 39.464 12.9474 39.968 13.3234 40.616C13.6994 41.264 13.8874 41.996 13.8874 42.812C13.8874 43.628 13.6994 44.364 13.3234 45.02C12.9474 45.668 12.4314 46.176 11.7754 46.544C11.1274 46.904 10.4114 47.084 9.62736 47.084ZM9.62736 45.896C10.1794 45.896 10.6714 45.772 11.1034 45.524C11.5354 45.268 11.8714 44.908 12.1114 44.444C12.3594 43.972 12.4834 43.428 12.4834 42.812C12.4834 42.196 12.3594 41.656 12.1114 41.192C11.8714 40.728 11.5354 40.372 11.1034 40.124C10.6714 39.876 10.1794 39.752 9.62736 39.752C9.07536 39.752 8.58336 39.876 8.15136 40.124C7.71936 40.372 7.37936 40.728 7.13136 41.192C6.89136 41.656 6.77136 42.196 6.77136 42.812C6.77136 43.428 6.89136 43.972 7.13136 44.444C7.37936 44.908 7.71936 45.268 8.15136 45.524C8.58336 45.772 9.07536 45.896 9.62736 45.896ZM8.59536 37.82C8.39536 37.82 8.22336 37.752 8.07936 37.616C7.94336 37.472 7.87536 37.3 7.87536 37.1C7.87536 36.9 7.94336 36.732 8.07936 36.596C8.22336 36.452 8.39536 36.38 8.59536 36.38C8.79536 36.38 8.96336 36.452 9.09936 36.596C9.24336 36.732 9.31536 36.9 9.31536 37.1C9.31536 37.3 9.24336 37.472 9.09936 37.616C8.96336 37.752 8.79536 37.82 8.59536 37.82ZM10.6594 37.82C10.4594 37.82 10.2874 37.752 10.1434 37.616C10.0074 37.472 9.93936 37.3 9.93936 37.1C9.93936 36.9 10.0074 36.732 10.1434 36.596C10.2874 36.452 10.4594 36.38 10.6594 36.38C10.8594 36.38 11.0274 36.452 11.1634 36.596C11.3074 36.732 11.3794 36.9 11.3794 37.1C11.3794 37.3 11.3074 37.472 11.1634 37.616C11.0274 37.752 10.8594 37.82 10.6594 37.82ZM17.5775 40.28C18.0895 40.28 18.5415 40.384 18.9335 40.592C19.3335 40.792 19.6455 41.044 19.8695 41.348V40.388H21.2495V47.108C21.2495 47.716 21.1215 48.256 20.8655 48.728C20.6095 49.208 20.2375 49.584 19.7495 49.856C19.2695 50.128 18.6935 50.264 18.0215 50.264C17.1255 50.264 16.3815 50.052 15.7895 49.628C15.1975 49.212 14.8615 48.644 14.7815 47.924H16.1375C16.2415 48.268 16.4615 48.544 16.7975 48.752C17.1415 48.968 17.5495 49.076 18.0215 49.076C18.5735 49.076 19.0175 48.908 19.3535 48.572C19.6975 48.236 19.8695 47.748 19.8695 47.108V46.004C19.6375 46.316 19.3215 46.58 18.9215 46.796C18.5295 47.004 18.0815 47.108 17.5775 47.108C17.0015 47.108 16.4735 46.964 15.9935 46.676C15.5215 46.38 15.1455 45.972 14.8655 45.452C14.5935 44.924 14.4575 44.328 14.4575 43.664C14.4575 43 14.5935 42.412 14.8655 41.9C15.1455 41.388 15.5215 40.992 15.9935 40.712C16.4735 40.424 17.0015 40.28 17.5775 40.28ZM19.8695 43.688C19.8695 43.232 19.7735 42.836 19.5815 42.5C19.3975 42.164 19.1535 41.908 18.8495 41.732C18.5455 41.556 18.2175 41.468 17.8655 41.468C17.5135 41.468 17.1855 41.556 16.8815 41.732C16.5775 41.9 16.3295 42.152 16.1375 42.488C15.9535 42.816 15.8615 43.208 15.8615 43.664C15.8615 44.12 15.9535 44.52 16.1375 44.864C16.3295 45.208 16.5775 45.472 16.8815 45.656C17.1935 45.832 17.5215 45.92 17.8655 45.92C18.2175 45.92 18.5455 45.832 18.8495 45.656C19.1535 45.48 19.3975 45.224 19.5815 44.888C19.7735 44.544 19.8695 44.144 19.8695 43.688ZM19.8935 38.168C19.8935 38.672 19.7295 39.076 19.4015 39.38C19.0815 39.684 18.6415 39.836 18.0815 39.836C17.5215 39.836 17.0815 39.684 16.7615 39.38C16.4415 39.068 16.2815 38.66 16.2815 38.156V37.904H17.0615C17.0615 38.192 17.1375 38.408 17.2895 38.552C17.4415 38.696 17.7055 38.768 18.0815 38.768C18.4575 38.768 18.7215 38.696 18.8735 38.552C19.0255 38.408 19.1015 38.192 19.1015 37.904H19.8935V38.168ZM24.0943 38.12V47H22.7263V38.12H24.0943ZM31.6304 43.532C31.6304 43.78 31.6144 44.004 31.5824 44.204H26.5304C26.5704 44.732 26.7664 45.156 27.1184 45.476C27.4704 45.796 27.9024 45.956 28.4144 45.956C29.1504 45.956 29.6704 45.648 29.9744 45.032H31.4504C31.2504 45.64 30.8864 46.14 30.3584 46.532C29.8384 46.916 29.1904 47.108 28.4144 47.108C27.7824 47.108 27.2144 46.968 26.7104 46.688C26.2144 46.4 25.8224 46 25.5344 45.488C25.2544 44.968 25.1144 44.368 25.1144 43.688C25.1144 43.008 25.2504 42.412 25.5224 41.9C25.8024 41.38 26.1904 40.98 26.6864 40.7C27.1904 40.42 27.7664 40.28 28.4144 40.28C29.0384 40.28 29.5944 40.416 30.0824 40.688C30.5704 40.96 30.9504 41.344 31.2224 41.84C31.4944 42.328 31.6304 42.892 31.6304 43.532ZM30.2024 43.1C30.1944 42.596 30.0144 42.192 29.6624 41.888C29.3104 41.584 28.8744 41.432 28.3544 41.432C27.8824 41.432 27.4784 41.584 27.1424 41.888C26.8064 42.184 26.6064 42.588 26.5424 43.1H30.2024Z" fill="#383838"/>
</svg>
