<svg width="92" height="200" viewBox="0 0 92 200" fill="none" xmlns="http://www.w3.org/2000/svg">
<path d="M34.1921 171C34.1921 180.665 42.0269 188.5 51.6921 188.5C61.3574 188.5 69.1921 180.665 69.1921 171C69.1921 161.335 61.3574 153.5 51.6921 153.5C42.0269 153.5 34.1921 161.335 34.1921 171ZM66.2755 171C66.2755 179.054 59.7462 185.583 51.6921 185.583C43.6381 185.583 37.1088 179.054 37.1088 171C37.1088 162.946 43.6381 156.417 51.6921 156.417C59.7462 156.417 66.2755 162.946 66.2755 171Z" fill="#CFCFCF" fill-opacity="0.7"/>
<path d="M54.638 171C54.638 169.389 53.3322 168.083 51.7214 168.083C50.1105 168.083 48.8047 169.389 48.8047 171C48.8047 172.611 50.1105 173.917 51.7214 173.917C53.3322 173.917 54.638 172.611 54.638 171Z" fill="#CFCFCF" fill-opacity="0.7"/>
<path d="M47.7476 157.566C45.6704 166.401 45.6704 175.598 47.7476 184.433C48.9995 184.801 50.3231 184.999 51.6921 184.999C52.4312 184.999 53.1569 184.942 53.8656 184.83C53.8621 184.817 53.8586 184.805 53.8551 184.791C53.0531 181.826 54.3271 178.675 56.9736 177.116C59.4347 175.667 62.0597 175.447 65.0312 175.252C65.46 173.91 65.6927 172.481 65.6927 170.999C65.6927 169.517 65.4605 168.087 65.0312 166.746C62.0597 166.551 59.4347 166.331 56.9736 164.881C54.3271 163.323 53.053 160.172 53.8551 157.206C53.8586 157.194 53.8621 157.181 53.8656 157.167C53.1575 157.057 52.4312 156.998 51.6921 156.998C50.3231 156.998 48.9995 157.197 47.7476 157.565L47.7476 157.566ZM56.0963 171C56.0963 173.416 54.1375 175.375 51.7213 175.375C49.3051 175.375 47.3463 173.416 47.3463 171C47.3463 168.584 49.3051 166.625 51.7213 166.625C54.1375 166.625 56.0963 168.584 56.0963 171Z" fill="#CFCFCF" fill-opacity="0.7"/>
<path d="M36.1921 1.5H64.1921V3.5C64.1921 5.15685 62.849 6.5 61.1921 6.5H39.1921C37.5353 6.5 36.1921 5.15685 36.1921 3.5V1.5Z" fill="#D9D9D9" fill-opacity="0.7"/>
<path d="M7.78098 181.349C-0.789726 117.776 -1.73763 76.6512 7.83343 15.3134C9.12533 7.03398 16.3126 1 24.6921 1C14.2021 15.9857 -3.77361 125.791 24.6109 198.293C15.9663 197.04 8.97762 190.225 7.78098 181.349Z" fill="#D9D9D9" fill-opacity="0.7"/>
<path d="M90.6921 1C90.6921 1 26.6921 1 24.6921 1M24.6921 1V1C16.3126 1 9.12533 7.03398 7.83342 15.3134C-1.73762 76.6512 -0.789728 117.776 7.78097 181.349C9.10799 191.192 17.5579 198.5 27.49 198.5H72.1921L89.1288 158.218C90.1606 155.764 90.6921 153.129 90.6921 150.466L90.6921 124M24.6921 1C14.1921 16 -3.80786 126 24.6921 198.5" stroke="#DDDDDD" stroke-opacity="0.5" stroke-width="2"/>
<path d="M51.0755 24.7642C50.8412 24.9983 50.5235 25.1297 50.1922 25.1297C49.861 25.1297 49.5432 24.9983 49.3089 24.7642L44.593 20.0508C44.3585 19.8163 44.2268 19.4983 44.2268 19.1667C44.2268 18.835 44.3585 18.517 44.593 18.2825C44.8275 18.048 45.1456 17.9163 45.4772 17.9163C45.8088 17.9163 46.1269 18.048 46.3614 18.2825L48.9422 20.8625V11.25C48.9422 10.9185 49.0739 10.6005 49.3083 10.3661C49.5427 10.1317 49.8607 10 50.1922 10C50.5237 10 50.8417 10.1317 51.0761 10.3661C51.3105 10.6005 51.4422 10.9185 51.4422 11.25V20.8625L54.0222 18.2825C54.1383 18.1664 54.2762 18.0743 54.4279 18.0114C54.5796 17.9486 54.7422 17.9163 54.9064 17.9163C55.0706 17.9163 55.2332 17.9486 55.3849 18.0114C55.5366 18.0743 55.6744 18.1664 55.7905 18.2825C55.9067 18.3986 55.9988 18.5365 56.0616 18.6882C56.1244 18.8399 56.1568 19.0025 56.1568 19.1667C56.1568 19.3309 56.1244 19.4935 56.0616 19.6452C55.9988 19.7969 55.9067 19.9347 55.7905 20.0508L51.0755 24.7642Z" fill="#D9D9D9" fill-opacity="0.7"/>
</svg>
