<svg width="306" height="206" viewBox="0 0 306 206" fill="none" xmlns="http://www.w3.org/2000/svg">
<g filter="url(#filter0_d_467_1431)">
<rect x="3" y="3" width="300" height="200" rx="20" fill="white"/>
</g>
<path d="M111.116 45.098C110.463 45.098 109.875 44.986 109.352 44.762C108.83 44.5287 108.419 44.202 108.12 43.782C107.822 43.362 107.672 42.872 107.672 42.312H109.38C109.418 42.732 109.581 43.0773 109.87 43.348C110.169 43.6187 110.584 43.754 111.116 43.754C111.667 43.754 112.096 43.6233 112.404 43.362C112.712 43.0913 112.866 42.746 112.866 42.326C112.866 41.9993 112.768 41.7333 112.572 41.528C112.386 41.3227 112.148 41.164 111.858 41.052C111.578 40.94 111.186 40.8187 110.682 40.688C110.048 40.52 109.53 40.352 109.128 40.184C108.736 40.0067 108.4 39.736 108.12 39.372C107.84 39.008 107.7 38.5227 107.7 37.916C107.7 37.356 107.84 36.866 108.12 36.446C108.4 36.026 108.792 35.704 109.296 35.48C109.8 35.256 110.384 35.144 111.046 35.144C111.989 35.144 112.759 35.382 113.356 35.858C113.963 36.3247 114.299 36.9687 114.364 37.79H112.6C112.572 37.4353 112.404 37.132 112.096 36.88C111.788 36.628 111.382 36.502 110.878 36.502C110.421 36.502 110.048 36.6187 109.758 36.852C109.469 37.0853 109.324 37.4213 109.324 37.86C109.324 38.1587 109.413 38.406 109.59 38.602C109.777 38.7887 110.01 38.938 110.29 39.05C110.57 39.162 110.953 39.2833 111.438 39.414C112.082 39.5913 112.605 39.7687 113.006 39.946C113.417 40.1233 113.762 40.3987 114.042 40.772C114.332 41.136 114.476 41.626 114.476 42.242C114.476 42.7367 114.341 43.2033 114.07 43.642C113.809 44.0807 113.422 44.4353 112.908 44.706C112.404 44.9673 111.807 45.098 111.116 45.098ZM123.43 40.954C123.43 41.2433 123.411 41.5047 123.374 41.738H117.48C117.526 42.354 117.755 42.8487 118.166 43.222C118.576 43.5953 119.08 43.782 119.678 43.782C120.536 43.782 121.143 43.4227 121.498 42.704H123.22C122.986 43.4133 122.562 43.9967 121.946 44.454C121.339 44.902 120.583 45.126 119.678 45.126C118.94 45.126 118.278 44.9627 117.69 44.636C117.111 44.3 116.654 43.8333 116.318 43.236C115.991 42.6293 115.828 41.9293 115.828 41.136C115.828 40.3427 115.986 39.6473 116.304 39.05C116.63 38.4433 117.083 37.9767 117.662 37.65C118.25 37.3233 118.922 37.16 119.678 37.16C120.406 37.16 121.054 37.3187 121.624 37.636C122.193 37.9533 122.636 38.4013 122.954 38.98C123.271 39.5493 123.43 40.2073 123.43 40.954ZM121.764 40.45C121.754 39.862 121.544 39.3907 121.134 39.036C120.723 38.6813 120.214 38.504 119.608 38.504C119.057 38.504 118.586 38.6813 118.194 39.036C117.802 39.3813 117.568 39.8527 117.494 40.45H121.764ZM128.248 43.782C129.172 43.782 129.784 43.376 130.082 42.564H131.804C131.599 43.2733 131.23 43.8567 130.698 44.314C130.176 44.762 129.518 45.0233 128.724 45.098V45.672C129.266 45.672 129.704 45.798 130.04 46.05C130.376 46.3113 130.544 46.6753 130.544 47.142C130.544 47.6087 130.376 47.9773 130.04 48.248C129.704 48.528 129.28 48.668 128.766 48.668H126.918V47.66H128.444C128.706 47.66 128.902 47.6227 129.032 47.548C129.163 47.4733 129.228 47.338 129.228 47.142C129.228 46.946 129.163 46.8107 129.032 46.736C128.902 46.6613 128.706 46.624 128.444 46.624H127.674V45.084C127.04 45.0093 126.48 44.7993 125.994 44.454C125.509 44.0993 125.131 43.642 124.86 43.082C124.599 42.5127 124.468 41.864 124.468 41.136C124.468 40.3427 124.627 39.6473 124.944 39.05C125.271 38.4433 125.719 37.9767 126.288 37.65C126.858 37.3233 127.511 37.16 128.248 37.16C129.182 37.16 129.952 37.384 130.558 37.832C131.174 38.2707 131.59 38.9007 131.804 39.722H130.082C129.942 39.3393 129.718 39.0407 129.41 38.826C129.102 38.6113 128.715 38.504 128.248 38.504C127.595 38.504 127.072 38.7373 126.68 39.204C126.298 39.6613 126.106 40.3053 126.106 41.136C126.106 41.9667 126.298 42.6153 126.68 43.082C127.072 43.5487 127.595 43.782 128.248 43.782ZM134.207 36.264C133.917 36.264 133.675 36.166 133.479 35.97C133.283 35.774 133.185 35.5313 133.185 35.242C133.185 34.9527 133.283 34.71 133.479 34.514C133.675 34.318 133.917 34.22 134.207 34.22C134.487 34.22 134.725 34.318 134.921 34.514C135.117 34.71 135.215 34.9527 135.215 35.242C135.215 35.5313 135.117 35.774 134.921 35.97C134.725 36.166 134.487 36.264 134.207 36.264ZM134.991 37.286V45H133.395V37.286H134.991ZM138.682 34.64V45H137.086V34.64H138.682ZM141.59 36.264C141.3 36.264 141.058 36.166 140.862 35.97C140.666 35.774 140.568 35.5313 140.568 35.242C140.568 34.9527 140.666 34.71 140.862 34.514C141.058 34.318 141.3 34.22 141.59 34.22C141.87 34.22 142.108 34.318 142.304 34.514C142.5 34.71 142.598 34.9527 142.598 35.242C142.598 35.5313 142.5 35.774 142.304 35.97C142.108 36.166 141.87 36.264 141.59 36.264ZM142.374 37.286V45H140.778V37.286H142.374ZM153.468 45L149.702 40.646V45H148.106V35.27H149.702V39.708L153.482 35.27H155.484L151.256 40.142L155.554 45H153.468ZM160.311 45.126C159.583 45.126 158.925 44.9627 158.337 44.636C157.749 44.3 157.287 43.8333 156.951 43.236C156.615 42.6293 156.447 41.9293 156.447 41.136C156.447 40.352 156.62 39.6567 156.965 39.05C157.31 38.4433 157.782 37.9767 158.379 37.65C158.976 37.3233 159.644 37.16 160.381 37.16C161.118 37.16 161.786 37.3233 162.383 37.65C162.98 37.9767 163.452 38.4433 163.797 39.05C164.142 39.6567 164.315 40.352 164.315 41.136C164.315 41.92 164.138 42.6153 163.783 43.222C163.428 43.8287 162.943 44.3 162.327 44.636C161.72 44.9627 161.048 45.126 160.311 45.126ZM160.311 43.74C160.722 43.74 161.104 43.642 161.459 43.446C161.823 43.25 162.117 42.956 162.341 42.564C162.565 42.172 162.677 41.696 162.677 41.136C162.677 40.576 162.57 40.1047 162.355 39.722C162.14 39.33 161.856 39.036 161.501 38.84C161.146 38.644 160.764 38.546 160.353 38.546C159.942 38.546 159.56 38.644 159.205 38.84C158.86 39.036 158.584 39.33 158.379 39.722C158.174 40.1047 158.071 40.576 158.071 41.136C158.071 41.9667 158.281 42.6107 158.701 43.068C159.13 43.516 159.667 43.74 160.311 43.74ZM167.489 34.64V45H165.893V34.64H167.489ZM171.446 38.588V42.858C171.446 43.1473 171.512 43.3573 171.642 43.488C171.782 43.6093 172.016 43.67 172.342 43.67H173.322V45H172.062C171.344 45 170.793 44.832 170.41 44.496C170.028 44.16 169.836 43.614 169.836 42.858V38.588H168.926V37.286H169.836V35.368H171.446V37.286H173.322V38.588H171.446ZM181.779 37.286V45H180.183V44.09C179.931 44.4073 179.6 44.6593 179.189 44.846C178.788 45.0233 178.358 45.112 177.901 45.112C177.294 45.112 176.748 44.986 176.263 44.734C175.787 44.482 175.409 44.1087 175.129 43.614C174.858 43.1193 174.723 42.522 174.723 41.822V37.286H176.305V41.584C176.305 42.2747 176.478 42.8067 176.823 43.18C177.168 43.544 177.64 43.726 178.237 43.726C178.834 43.726 179.306 43.544 179.651 43.18C180.006 42.8067 180.183 42.2747 180.183 41.584V37.286H181.779ZM186.937 41.15L190.493 45H188.337L185.481 41.682V45H183.885V34.64H185.481V40.66L188.281 37.286H190.493L186.937 41.15ZM193.233 34.64V45H191.637V34.64H193.233ZM194.796 41.108C194.796 40.3333 194.955 39.6473 195.272 39.05C195.599 38.4527 196.038 37.9907 196.588 37.664C197.148 37.328 197.764 37.16 198.436 37.16C199.043 37.16 199.57 37.2813 200.018 37.524C200.476 37.7573 200.84 38.0513 201.11 38.406V37.286H202.72V45H201.11V43.852C200.84 44.216 200.471 44.5193 200.004 44.762C199.538 45.0047 199.006 45.126 198.408 45.126C197.746 45.126 197.139 44.958 196.588 44.622C196.038 44.2767 195.599 43.8007 195.272 43.194C194.955 42.578 194.796 41.8827 194.796 41.108ZM201.11 41.136C201.11 40.604 200.998 40.142 200.774 39.75C200.56 39.358 200.275 39.0593 199.92 38.854C199.566 38.6487 199.183 38.546 198.772 38.546C198.362 38.546 197.979 38.6487 197.624 38.854C197.27 39.05 196.98 39.344 196.756 39.736C196.542 40.1187 196.434 40.576 196.434 41.108C196.434 41.64 196.542 42.1067 196.756 42.508C196.98 42.9093 197.27 43.2173 197.624 43.432C197.988 43.6373 198.371 43.74 198.772 43.74C199.183 43.74 199.566 43.6373 199.92 43.432C200.275 43.2267 200.56 42.928 200.774 42.536C200.998 42.1347 201.11 41.668 201.11 41.136ZM206.413 38.406C206.646 38.014 206.954 37.7107 207.337 37.496C207.729 37.272 208.191 37.16 208.723 37.16V38.812H208.317C207.691 38.812 207.215 38.9707 206.889 39.288C206.571 39.6053 206.413 40.156 206.413 40.94V45H204.817V37.286H206.413V38.406Z" fill="#606060"/>
<rect x="65.5" y="61.5" width="29" height="27" rx="2.5" fill="#EAD8DE" stroke="#CA9DAC"/>
<rect x="74.5" y="59.5" width="20" height="5" rx="2.5" fill="#EAD8DE" stroke="#CA9DAC"/>
<rect x="74.5" y="86.5" width="20" height="5" rx="2.5" fill="#EAD8DE" stroke="#CA9DAC"/>
<rect x="92.5" y="62.5" width="5" height="26" rx="2.5" fill="#EAD8DE" stroke="#CA9DAC"/>
<rect x="116.5" y="61.5" width="29" height="27" rx="2.5" fill="#C7E2FB" stroke="#75B7F5"/>
<rect x="125.5" y="59.5" width="20" height="5" rx="2.5" fill="#C7E2FB" stroke="#75B7F5"/>
<rect x="125.5" y="86.5" width="20" height="5" rx="2.5" fill="#C7E2FB" stroke="#75B7F5"/>
<rect x="143.5" y="62.5" width="5" height="26" rx="2.5" fill="#C7E2FB" stroke="#75B7F5"/>
<rect x="167.5" y="61.5" width="29" height="27" rx="2.5" fill="white" stroke="#C6C6C6"/>
<rect x="176.5" y="59.5" width="20" height="5" rx="2.5" fill="white" stroke="#C6C6C6"/>
<rect x="176.5" y="86.5" width="20" height="5" rx="2.5" fill="white" stroke="#C6C6C6"/>
<rect x="194.5" y="62.5" width="5" height="26" rx="2.5" fill="white" stroke="#C6C6C6"/>
<rect x="218.5" y="61.5" width="29" height="27" rx="2.5" fill="white" stroke="#C6C6C6"/>
<rect x="227.5" y="59.5" width="20" height="5" rx="2.5" fill="white" stroke="#C6C6C6"/>
<rect x="227.5" y="86.5" width="20" height="5" rx="2.5" fill="white" stroke="#C6C6C6"/>
<rect x="245.5" y="62.5" width="5" height="26" rx="2.5" fill="white" stroke="#C6C6C6"/>
<path d="M119.624 121.27V122.572H117.034V131H115.438V122.572H112.834V121.27H119.624ZM124.586 131.126C123.858 131.126 123.2 130.963 122.612 130.636C122.024 130.3 121.562 129.833 121.226 129.236C120.89 128.629 120.722 127.929 120.722 127.136C120.722 126.352 120.895 125.657 121.24 125.05C121.586 124.443 122.057 123.977 122.654 123.65C123.252 123.323 123.919 123.16 124.656 123.16C125.394 123.16 126.061 123.323 126.658 123.65C127.256 123.977 127.727 124.443 128.072 125.05C128.418 125.657 128.59 126.352 128.59 127.136C128.59 127.92 128.413 128.615 128.058 129.222C127.704 129.829 127.218 130.3 126.602 130.636C125.996 130.963 125.324 131.126 124.586 131.126ZM124.586 129.74C124.997 129.74 125.38 129.642 125.734 129.446C126.098 129.25 126.392 128.956 126.616 128.564C126.84 128.172 126.952 127.696 126.952 127.136C126.952 126.576 126.845 126.105 126.63 125.722C126.416 125.33 126.131 125.036 125.776 124.84C125.422 124.644 125.039 124.546 124.628 124.546C124.218 124.546 123.835 124.644 123.48 124.84C123.135 125.036 122.86 125.33 122.654 125.722C122.449 126.105 122.346 126.576 122.346 127.136C122.346 127.967 122.556 128.611 122.976 129.068C123.406 129.516 123.942 129.74 124.586 129.74ZM131.764 124.42C132.035 124.065 132.403 123.767 132.87 123.524C133.337 123.281 133.864 123.16 134.452 123.16C135.124 123.16 135.735 123.328 136.286 123.664C136.846 123.991 137.285 124.453 137.602 125.05C137.919 125.647 138.078 126.333 138.078 127.108C138.078 127.883 137.919 128.578 137.602 129.194C137.285 129.801 136.846 130.277 136.286 130.622C135.735 130.958 135.124 131.126 134.452 131.126C133.864 131.126 133.341 131.009 132.884 130.776C132.427 130.533 132.053 130.235 131.764 129.88V134.668H130.168V123.286H131.764V124.42ZM136.454 127.108C136.454 126.576 136.342 126.119 136.118 125.736C135.903 125.344 135.614 125.05 135.25 124.854C134.895 124.649 134.513 124.546 134.102 124.546C133.701 124.546 133.318 124.649 132.954 124.854C132.599 125.059 132.31 125.358 132.086 125.75C131.871 126.142 131.764 126.604 131.764 127.136C131.764 127.668 131.871 128.135 132.086 128.536C132.31 128.928 132.599 129.227 132.954 129.432C133.318 129.637 133.701 129.74 134.102 129.74C134.513 129.74 134.895 129.637 135.25 129.432C135.614 129.217 135.903 128.909 136.118 128.508C136.342 128.107 136.454 127.64 136.454 127.108ZM141.252 120.64V131H139.656V120.64H141.252ZM142.816 127.108C142.816 126.333 142.975 125.647 143.292 125.05C143.619 124.453 144.057 123.991 144.608 123.664C145.168 123.328 145.784 123.16 146.456 123.16C147.063 123.16 147.59 123.281 148.038 123.524C148.495 123.757 148.859 124.051 149.13 124.406V123.286H150.74V131H149.13V129.852C148.859 130.216 148.491 130.519 148.024 130.762C147.557 131.005 147.025 131.126 146.428 131.126C145.765 131.126 145.159 130.958 144.608 130.622C144.057 130.277 143.619 129.801 143.292 129.194C142.975 128.578 142.816 127.883 142.816 127.108ZM149.13 127.136C149.13 126.604 149.018 126.142 148.794 125.75C148.579 125.358 148.295 125.059 147.94 124.854C147.585 124.649 147.203 124.546 146.792 124.546C146.381 124.546 145.999 124.649 145.644 124.854C145.289 125.05 145 125.344 144.776 125.736C144.561 126.119 144.454 126.576 144.454 127.108C144.454 127.64 144.561 128.107 144.776 128.508C145 128.909 145.289 129.217 145.644 129.432C146.008 129.637 146.391 129.74 146.792 129.74C147.203 129.74 147.585 129.637 147.94 129.432C148.295 129.227 148.579 128.928 148.794 128.536C149.018 128.135 149.13 127.668 149.13 127.136ZM162.174 123.16C162.781 123.16 163.322 123.286 163.798 123.538C164.283 123.79 164.661 124.163 164.932 124.658C165.212 125.153 165.352 125.75 165.352 126.45V131H163.77V126.688C163.77 125.997 163.597 125.47 163.252 125.106C162.907 124.733 162.435 124.546 161.838 124.546C161.241 124.546 160.765 124.733 160.41 125.106C160.065 125.47 159.892 125.997 159.892 126.688V131H158.31V126.688C158.31 125.997 158.137 125.47 157.792 125.106C157.447 124.733 156.975 124.546 156.378 124.546C155.781 124.546 155.305 124.733 154.95 125.106C154.605 125.47 154.432 125.997 154.432 126.688V131H152.836V123.286H154.432V124.168C154.693 123.851 155.025 123.603 155.426 123.426C155.827 123.249 156.257 123.16 156.714 123.16C157.33 123.16 157.881 123.291 158.366 123.552C158.851 123.813 159.225 124.191 159.486 124.686C159.719 124.219 160.083 123.851 160.578 123.58C161.073 123.3 161.605 123.16 162.174 123.16ZM176.746 121.27V122.572H172.616V125.442H175.836V126.744H172.616V131H171.02V121.27H176.746ZM179.037 122.264C178.747 122.264 178.505 122.166 178.309 121.97C178.113 121.774 178.015 121.531 178.015 121.242C178.015 120.953 178.113 120.71 178.309 120.514C178.505 120.318 178.747 120.22 179.037 120.22C179.317 120.22 179.555 120.318 179.751 120.514C179.947 120.71 180.045 120.953 180.045 121.242C180.045 121.531 179.947 121.774 179.751 121.97C179.555 122.166 179.317 122.264 179.037 122.264ZM179.821 123.286V131H178.225V123.286H179.821ZM188.86 123.286L184.128 134.626H182.476L184.044 130.874L181.006 123.286H182.784L184.954 129.166L187.208 123.286H188.86ZM189.533 127.108C189.533 126.333 189.691 125.647 190.009 125.05C190.335 124.453 190.774 123.991 191.325 123.664C191.885 123.328 192.501 123.16 193.173 123.16C193.779 123.16 194.307 123.281 194.755 123.524C195.212 123.757 195.576 124.051 195.847 124.406V123.286H197.457V131H195.847V129.852C195.576 130.216 195.207 130.519 194.741 130.762C194.274 131.005 193.742 131.126 193.145 131.126C192.482 131.126 191.875 130.958 191.325 130.622C190.774 130.277 190.335 129.801 190.009 129.194C189.691 128.578 189.533 127.883 189.533 127.108ZM195.847 127.136C195.847 126.604 195.735 126.142 195.511 125.75C195.296 125.358 195.011 125.059 194.657 124.854C194.302 124.649 193.919 124.546 193.509 124.546C193.098 124.546 192.715 124.649 192.361 124.854C192.006 125.05 191.717 125.344 191.493 125.736C191.278 126.119 191.171 126.576 191.171 127.108C191.171 127.64 191.278 128.107 191.493 128.508C191.717 128.909 192.006 129.217 192.361 129.432C192.725 129.637 193.107 129.74 193.509 129.74C193.919 129.74 194.302 129.637 194.657 129.432C195.011 129.227 195.296 128.928 195.511 128.536C195.735 128.135 195.847 127.668 195.847 127.136ZM201.415 124.588V128.858C201.415 129.147 201.48 129.357 201.611 129.488C201.751 129.609 201.984 129.67 202.311 129.67H203.291V131H202.031C201.312 131 200.762 130.832 200.379 130.496C199.996 130.16 199.805 129.614 199.805 128.858V124.588H198.895V123.286H199.805V121.368H201.415V123.286H203.291V124.588H201.415Z" fill="#606060"/>
<path d="M145.675 158.44C145.675 161.467 145.089 163.7 143.915 165.14C142.755 166.58 140.882 167.3 138.295 167.3C137.175 167.3 135.875 167.133 134.395 166.8V162.18L131.415 162.86V161.24L134.395 160.56V158.86L131.335 159.56V158L134.395 157.3V152.98H136.735V156.76L140.015 156V157.6L136.735 158.34V160.04L139.915 159.32V160.92L136.735 161.64V165.02C137.175 165.113 137.695 165.16 138.295 165.16C140.109 165.16 141.402 164.593 142.175 163.46C142.949 162.327 143.335 160.653 143.335 158.44H145.675ZM151.767 159.38C150.381 158.687 149.687 157.593 149.687 156.1C149.687 155.38 149.867 154.72 150.227 154.12C150.587 153.52 151.127 153.047 151.847 152.7C152.567 152.34 153.447 152.16 154.487 152.16C155.514 152.16 156.387 152.34 157.107 152.7C157.841 153.047 158.387 153.52 158.747 154.12C159.107 154.72 159.287 155.38 159.287 156.1C159.287 156.847 159.094 157.507 158.707 158.08C158.334 158.64 157.834 159.073 157.207 159.38C157.967 159.66 158.567 160.12 159.007 160.76C159.447 161.387 159.667 162.127 159.667 162.98C159.667 163.847 159.447 164.613 159.007 165.28C158.567 165.947 157.954 166.46 157.167 166.82C156.381 167.18 155.487 167.36 154.487 167.36C153.487 167.36 152.594 167.18 151.807 166.82C151.034 166.46 150.427 165.947 149.987 165.28C149.547 164.613 149.327 163.847 149.327 162.98C149.327 162.113 149.547 161.367 149.987 160.74C150.427 160.113 151.021 159.66 151.767 159.38ZM157.107 156.38C157.107 155.633 156.874 155.06 156.407 154.66C155.941 154.26 155.301 154.06 154.487 154.06C153.687 154.06 153.054 154.26 152.587 154.66C152.121 155.06 151.887 155.64 151.887 156.4C151.887 157.067 152.127 157.613 152.607 158.04C153.101 158.453 153.727 158.66 154.487 158.66C155.247 158.66 155.874 158.447 156.367 158.02C156.861 157.593 157.107 157.047 157.107 156.38ZM154.487 160.38C153.607 160.38 152.887 160.6 152.327 161.04C151.781 161.467 151.507 162.087 151.507 162.9C151.507 163.66 151.774 164.28 152.307 164.76C152.841 165.227 153.567 165.46 154.487 165.46C155.394 165.46 156.107 165.22 156.627 164.74C157.161 164.26 157.427 163.647 157.427 162.9C157.427 162.1 157.154 161.48 156.607 161.04C156.074 160.6 155.367 160.38 154.487 160.38ZM171.301 154.18L165.741 167H163.441L169.061 154.42H161.661V152.48H171.301V154.18ZM181.093 155.8C180.946 155.187 180.679 154.727 180.293 154.42C179.906 154.113 179.366 153.96 178.673 153.96C177.619 153.96 176.833 154.367 176.313 155.18C175.793 155.98 175.519 157.313 175.493 159.18C175.839 158.593 176.346 158.14 177.013 157.82C177.679 157.5 178.399 157.34 179.173 157.34C180.053 157.34 180.826 157.533 181.493 157.92C182.173 158.293 182.699 158.84 183.073 159.56C183.459 160.28 183.653 161.14 183.653 162.14C183.653 163.073 183.466 163.907 183.093 164.64C182.733 165.373 182.193 165.953 181.473 166.38C180.753 166.793 179.886 167 178.873 167C177.499 167 176.419 166.7 175.633 166.1C174.859 165.487 174.313 164.627 173.993 163.52C173.686 162.413 173.533 161.033 173.533 159.38C173.533 154.5 175.253 152.06 178.693 152.06C180.026 152.06 181.073 152.42 181.833 153.14C182.606 153.86 183.059 154.747 183.193 155.8H181.093ZM178.673 159.26C177.859 159.26 177.166 159.507 176.593 160C176.033 160.48 175.753 161.18 175.753 162.1C175.753 163.02 176.013 163.753 176.533 164.3C177.066 164.833 177.806 165.1 178.753 165.1C179.593 165.1 180.253 164.84 180.733 164.32C181.226 163.8 181.473 163.107 181.473 162.24C181.473 161.333 181.233 160.613 180.753 160.08C180.286 159.533 179.593 159.26 178.673 159.26Z" fill="#5F717A"/>
<defs>
<filter id="filter0_d_467_1431" x="0" y="0" width="306" height="206" filterUnits="userSpaceOnUse" color-interpolation-filters="sRGB">
<feFlood flood-opacity="0" result="BackgroundImageFix"/>
<feColorMatrix in="SourceAlpha" type="matrix" values="0 0 0 0 0 0 0 0 0 0 0 0 0 0 0 0 0 0 127 0" result="hardAlpha"/>
<feOffset/>
<feGaussianBlur stdDeviation="1.5"/>
<feComposite in2="hardAlpha" operator="out"/>
<feColorMatrix type="matrix" values="0 0 0 0 0 0 0 0 0 0 0 0 0 0 0 0 0 0 0.25 0"/>
<feBlend mode="normal" in2="BackgroundImageFix" result="effect1_dropShadow_467_1431"/>
<feBlend mode="normal" in="SourceGraphic" in2="effect1_dropShadow_467_1431" result="shape"/>
</filter>
</defs>
</svg>
