<svg width="48" height="49" viewBox="0 0 48 49" fill="none" xmlns="http://www.w3.org/2000/svg">
<path d="M38.4 6.97607H9.59999C7.83199 6.97607 6.39999 8.40807 6.39999 10.1761V38.9761C6.39999 40.7441 7.83199 42.1761 9.59999 42.1761H38.4C40.168 42.1761 41.6 40.7441 41.6 38.9761V10.1761C41.6 8.40807 40.1664 6.97607 38.4 6.97607ZM36.3024 22.1345C36.0944 22.1537 35.8848 22.1665 35.6736 22.1665C33.2816 22.1665 31.1792 20.9377 29.9552 19.0769C29.9552 23.9553 29.9552 29.5073 29.9552 29.6001C29.9552 33.8961 26.472 37.3777 22.1776 37.3777C17.8832 37.3761 14.4 33.8929 14.4 29.5985C14.4 25.3025 17.8832 21.8209 22.1776 21.8209C22.3408 21.8209 22.4992 21.8353 22.6576 21.8449V25.6785C22.4976 25.6593 22.3424 25.6305 22.1776 25.6305C19.9856 25.6305 18.208 27.4081 18.208 29.6001C18.208 31.7921 19.984 33.5697 22.1776 33.5697C24.3712 33.5697 26.3072 31.8417 26.3072 29.6497C26.3072 29.5617 26.3456 11.7777 26.3456 11.7777H30.008C30.352 15.0529 32.9968 17.6385 36.3024 17.8753V22.1345Z" fill="#283350"/>
</svg>
