<svg width="48" height="49" viewBox="0 0 48 49" fill="none" xmlns="http://www.w3.org/2000/svg">
<path d="M24 8.6543C17.3024 8.6543 8.60937 8.6543 8.60937 8.6543L8.5875 8.6793C5.53706 9.16716 3.2 11.7884 3.2 14.9762V24.5762V24.5793V34.1762V34.1793C3.20297 35.7018 3.74859 37.1733 4.73887 38.3297C5.72916 39.4861 7.09924 40.2515 8.60312 40.4887L8.60937 40.498C8.60937 40.498 17.3024 40.4887 24 40.4887C30.6976 40.4887 39.3906 40.498 39.3906 40.498L39.3937 40.4949C40.8993 40.2583 42.2709 39.4922 43.262 38.3344C44.253 37.1767 44.7984 35.7033 44.8 34.1793V34.1762V24.5793V24.5762V14.9762C44.7978 13.4532 44.2525 11.9809 43.2621 10.8239C42.2718 9.66683 40.9013 8.90089 39.3969 8.66367L39.3906 8.6543C39.3906 8.6543 30.6976 8.6543 24 8.6543ZM19.2 17.2137L32 24.5762L19.2 31.9387V17.2137Z" fill="#283350"/>
</svg>
