<svg width="64" height="64" viewBox="0 0 64 64" fill="none" xmlns="http://www.w3.org/2000/svg">
<path d="M36.6666 34.6666C36.6666 33.7826 37.0178 32.9347 37.6429 32.3096C38.268 31.6845 39.1159 31.3333 39.9999 31.3333C40.884 31.3333 41.7318 31.6845 42.3569 32.3096C42.9821 32.9347 43.3332 33.7826 43.3332 34.6666C43.3332 35.5507 42.9821 36.3985 42.3569 37.0237C41.7318 37.6488 40.884 38 39.9999 38C39.1159 38 38.268 37.6488 37.6429 37.0237C37.0178 36.3985 36.6666 35.5507 36.6666 34.6666ZM58.6666 32V58.6666H5.33325V32C5.33325 17.3333 17.3333 5.33331 31.9999 5.33331C46.6666 5.33331 58.6666 17.3333 58.6666 32ZM10.6666 32C10.6666 43.76 20.2399 53.3333 31.9999 53.3333C43.7599 53.3333 53.3332 43.76 53.3332 32C53.3332 29.8933 53.0132 27.8666 52.4532 25.9733C47.2979 27.1709 41.9025 26.8033 36.9573 24.9173C32.0121 23.0314 27.7419 19.713 24.6933 15.3866C22.0799 21.76 17.0933 26.9066 10.7999 29.7066C10.6666 30.4533 10.6666 31.2266 10.6666 32ZM23.9999 38C24.884 38 25.7318 37.6488 26.3569 37.0237C26.9821 36.3985 27.3333 35.5507 27.3333 34.6666C27.3333 33.7826 26.9821 32.9347 26.3569 32.3096C25.7318 31.6845 24.884 31.3333 23.9999 31.3333C23.1159 31.3333 22.268 31.6845 21.6429 32.3096C21.0178 32.9347 20.6666 33.7826 20.6666 34.6666C20.6666 35.5507 21.0178 36.3985 21.6429 37.0237C22.268 37.6488 23.1159 38 23.9999 38Z" fill="#EE98C1" fill-opacity="0.4"/>
<circle cx="12" cy="50" r="12" fill="#E17A78"/>
<path fill-rule="evenodd" clip-rule="evenodd" d="M16.8911 46.5231C18.561 48.8663 18.3449 52.1404 16.2426 54.2426C14.1404 56.3449 10.8663 56.561 8.52311 54.8911L16.8911 46.5231ZM15.4769 45.1089L7.1089 53.4769C5.43897 51.1337 5.65512 47.8596 7.75735 45.7574C9.85957 43.6551 13.1337 43.439 15.4769 45.1089ZM17.6568 44.3431C20.781 47.4673 20.781 52.5327 17.6568 55.6569C14.5326 58.781 9.46733 58.781 6.34313 55.6569C3.21894 52.5327 3.21894 47.4673 6.34313 44.3431C9.46733 41.219 14.5326 41.219 17.6568 44.3431Z" fill="white"/>
</svg>
