<svg width="64" height="64" viewBox="0 0 64 64" fill="none" xmlns="http://www.w3.org/2000/svg">
<path d="M36.6666 34.6666C36.6666 33.7826 37.0178 32.9347 37.6429 32.3096C38.268 31.6845 39.1159 31.3333 39.9999 31.3333C40.884 31.3333 41.7318 31.6845 42.3569 32.3096C42.9821 32.9347 43.3333 33.7826 43.3333 34.6666C43.3333 35.5507 42.9821 36.3985 42.3569 37.0237C41.7318 37.6488 40.884 38 39.9999 38C39.1159 38 38.268 37.6488 37.6429 37.0237C37.0178 36.3985 36.6666 35.5507 36.6666 34.6666ZM58.6666 32V58.6666H5.33325V32C5.33325 17.3333 17.3333 5.33331 31.9999 5.33331C46.6666 5.33331 58.6666 17.3333 58.6666 32ZM10.6666 32C10.6666 43.76 20.2399 53.3333 31.9999 53.3333C43.7599 53.3333 53.3333 43.76 53.3333 32C53.3333 29.8933 53.0133 27.8666 52.4533 25.9733C47.2979 27.1709 41.9025 26.8033 36.9573 24.9173C32.0121 23.0314 27.7419 19.713 24.6933 15.3866C22.0799 21.76 17.0933 26.9066 10.7999 29.7066C10.6666 30.4533 10.6666 31.2266 10.6666 32ZM23.9999 38C24.884 38 25.7318 37.6488 26.3569 37.0237C26.9821 36.3985 27.3333 35.5507 27.3333 34.6666C27.3333 33.7826 26.9821 32.9347 26.3569 32.3096C25.7318 31.6845 24.884 31.3333 23.9999 31.3333C23.1159 31.3333 22.268 31.6845 21.6429 32.3096C21.0178 32.9347 20.6666 33.7826 20.6666 34.6666C20.6666 35.5507 21.0178 36.3985 21.6429 37.0237C22.268 37.6488 23.1159 38 23.9999 38Z" fill="#EE98C1"/>
</svg>
