<svg width="64" height="64" viewBox="0 0 64 64" fill="none" xmlns="http://www.w3.org/2000/svg">
<path d="M23.9999 31.3333C23.1159 31.3333 22.268 31.6845 21.6429 32.3096C21.0178 32.9347 20.6666 33.7826 20.6666 34.6666C20.6666 35.5507 21.0178 36.3985 21.6429 37.0237C22.268 37.6488 23.1159 38 23.9999 38C24.4377 38 24.8711 37.9138 25.2755 37.7462C25.6799 37.5787 26.0474 37.3332 26.3569 37.0237C26.6665 36.7141 26.912 36.3467 27.0795 35.9423C27.247 35.5378 27.3333 35.1044 27.3333 34.6666C27.3333 34.2289 27.247 33.7955 27.0795 33.391C26.912 32.9866 26.6665 32.6192 26.3569 32.3096C26.0474 32.0001 25.6799 31.7546 25.2755 31.587C24.8711 31.4195 24.4377 31.3333 23.9999 31.3333ZM39.9999 31.3333C39.1159 31.3333 38.268 31.6845 37.6429 32.3096C37.0178 32.9347 36.6666 33.7826 36.6666 34.6666C36.6666 35.5507 37.0178 36.3985 37.6429 37.0237C38.268 37.6488 39.1159 38 39.9999 38C40.884 38 41.7318 37.6488 42.3569 37.0237C42.9821 36.3985 43.3332 35.5507 43.3332 34.6666C43.3332 33.7826 42.9821 32.9347 42.3569 32.3096C41.7318 31.6845 40.884 31.3333 39.9999 31.3333ZM31.9999 5.33331C28.498 5.33331 25.0304 6.02307 21.795 7.36319C18.5597 8.70332 15.62 10.6676 13.1437 13.1438C8.14277 18.1448 5.33325 24.9275 5.33325 32C5.33325 39.0724 8.14277 45.8552 13.1437 50.8562C15.62 53.3324 18.5597 55.2966 21.795 56.6368C25.0304 57.9769 28.498 58.6666 31.9999 58.6666C39.0724 58.6666 45.8551 55.8571 50.8561 50.8562C55.8571 45.8552 58.6666 39.0724 58.6666 32C58.6666 28.4981 57.9768 25.0304 56.6367 21.7951C55.2966 18.5597 53.3323 15.62 50.8561 13.1438C48.3799 10.6676 45.4402 8.70332 42.2048 7.36319C38.9695 6.02307 35.5018 5.33331 31.9999 5.33331ZM31.9999 53.3333C20.2399 53.3333 10.6666 43.76 10.6666 32C10.6666 31.2266 10.6666 30.4533 10.7999 29.7066C17.0933 26.9066 22.0799 21.76 24.6933 15.3866C27.7419 19.713 32.0121 23.0314 36.9573 24.9173C41.9025 26.8033 47.2979 27.1709 52.4532 25.9733C53.0132 27.8666 53.3332 29.8933 53.3332 32C53.3332 43.76 43.7599 53.3333 31.9999 53.3333Z" fill="#87CEEB" fill-opacity="0.4"/>
<circle cx="12" cy="50" r="12" fill="#E17A78"/>
<path fill-rule="evenodd" clip-rule="evenodd" d="M16.8911 46.5231C18.561 48.8663 18.3449 52.1404 16.2426 54.2426C14.1404 56.3449 10.8663 56.561 8.52311 54.8911L16.8911 46.5231ZM15.4769 45.1089L7.1089 53.4769C5.43897 51.1337 5.65512 47.8596 7.75735 45.7574C9.85957 43.6551 13.1337 43.439 15.4769 45.1089ZM17.6568 44.3431C20.781 47.4673 20.781 52.5327 17.6568 55.6569C14.5326 58.781 9.46733 58.781 6.34313 55.6569C3.21894 52.5327 3.21894 47.4673 6.34313 44.3431C9.46733 41.219 14.5326 41.219 17.6568 44.3431Z" fill="white"/>
</svg>
